<svg width="320" height="320" viewBox="0 0 320 320" xmlns="http://www.w3.org/2000/svg">
  <defs>
    <radialGradient id="bg_b" cx="30%" cy="60%" r="70%">
      <stop offset="0%" stop-color="#1a0808"/>
      <stop offset="100%" stop-color="#0a0303"/>
    </radialGradient>
    <radialGradient id="accent_b" cx="30%" cy="55%" r="55%">
      <stop offset="0%" stop-color="#e53935" stop-opacity="0.28"/>
      <stop offset="100%" stop-color="#0a0303" stop-opacity="0"/>
    </radialGradient>
    <filter id="glow_b">
      <feGaussianBlur stdDeviation="3" result="blur"/>
      <feMerge><feMergeNode in="blur"/><feMergeNode in="SourceGraphic"/></feMerge>
    </filter>
    <pattern id="grid_b" width="40" height="40" patternUnits="userSpaceOnUse">
      <path d="M 40 0 L 0 0 0 40" fill="none" stroke="white" stroke-width="0.5" opacity="0.07"/>
    </pattern>
    <linearGradient id="fade_b" x1="0" y1="0" x2="0" y2="1">
      <stop offset="0%" stop-color="#0a0303" stop-opacity="0"/>
      <stop offset="100%" stop-color="#0a0303" stop-opacity="0.95"/>
    </linearGradient>
    <linearGradient id="stripe_b" x1="0" y1="0" x2="1" y2="0">
      <stop offset="0%" stop-color="#b71c1c"/>
      <stop offset="50%" stop-color="#ef5350"/>
      <stop offset="100%" stop-color="#b71c1c"/>
    </linearGradient>
  </defs>
  <rect width="320" height="320" fill="url(#bg_b)"/>
  <rect width="320" height="320" fill="url(#accent_b)"/>
  <g transform="translate(160,100)" filter="url(#glow_b)">
    <rect x="-45" y="-42" width="90" height="78" rx="6" stroke="#e53935" stroke-width="3.5" fill="#e53935" fill-opacity="0.07"/>
    <rect x="-32" y="-30" width="64" height="46" rx="3" stroke="#c62828" stroke-width="2" fill="none"/>
    <line x1="-32" y1="-16" x2="32" y2="-16" stroke="#e53935" stroke-width="1.5" opacity="0.5"/>
    <circle r="18" cy="0" stroke="#e53935" stroke-width="2.5" fill="#e53935" fill-opacity="0.08"/>
    <circle r="7" fill="#ef5350"/>
    <circle cx="34" cy="-34" r="5" fill="#ff8a80" opacity="0.9"/>
    <rect x="-38" y="40" width="24" height="8" rx="2" fill="#c62828" opacity="0.7"/>
    <rect x="14" y="40" width="24" height="8" rx="2" fill="#c62828" opacity="0.7"/>
    <rect x="-22" y="48" width="44" height="11" rx="2" fill="#7f0000" opacity="0.8"/>
  </g>
  <rect width="320" height="320" fill="url(#fade_b)"/>
  <rect x="0" y="317" width="320" height="3" fill="url(#stripe_b)"/>
</svg>
