<svg width="320" height="320" viewBox="0 0 320 320" xmlns="http://www.w3.org/2000/svg">
  <defs>
    <radialGradient id="bg_v" cx="60%" cy="40%" r="70%">
      <stop offset="0%" stop-color="#2a0a0a"/>
      <stop offset="100%" stop-color="#0f0505"/>
    </radialGradient>
    <radialGradient id="accent_v" cx="65%" cy="35%" r="60%">
      <stop offset="0%" stop-color="#e53935" stop-opacity="0.35"/>
      <stop offset="100%" stop-color="#0f0505" stop-opacity="0"/>
    </radialGradient>
    <filter id="glow_v">
      <feGaussianBlur stdDeviation="3" result="blur"/>
      <feMerge><feMergeNode in="blur"/><feMergeNode in="SourceGraphic"/></feMerge>
    </filter>
    <pattern id="grid_v" width="40" height="40" patternUnits="userSpaceOnUse">
      <path d="M 40 0 L 0 0 0 40" fill="none" stroke="white" stroke-width="0.5" opacity="0.07"/>
    </pattern>
    <linearGradient id="fade_v" x1="0" y1="0" x2="0" y2="1">
      <stop offset="0%" stop-color="#0f0505" stop-opacity="0"/>
      <stop offset="100%" stop-color="#0f0505" stop-opacity="0.95"/>
    </linearGradient>
    <linearGradient id="stripe_v" x1="0" y1="0" x2="1" y2="0">
      <stop offset="0%" stop-color="#b71c1c"/>
      <stop offset="50%" stop-color="#ef5350"/>
      <stop offset="100%" stop-color="#b71c1c"/>
    </linearGradient>
  </defs>
  <rect width="320" height="320" fill="url(#bg_v)"/>
  <rect width="320" height="320" fill="url(#accent_v)"/>
  <rect width="320" height="320" fill="url(#grid_v)"/>
  <g transform="translate(160,105)" filter="url(#glow_v)">
    <circle r="55" stroke="#e53935" stroke-width="5" fill="none"/>
    <circle r="20" stroke="#e53935" stroke-width="3.5" fill="#e53935" fill-opacity="0.10"/>
    <line x1="0" y1="-20" x2="0" y2="-43" stroke="#e53935" stroke-width="4" stroke-linecap="round"/>
    <line x1="0" y1="20" x2="-19" y2="38" stroke="#e53935" stroke-width="4" stroke-linecap="round"/>
    <line x1="0" y1="20" x2="19" y2="38" stroke="#e53935" stroke-width="4" stroke-linecap="round"/>
    <path d="M-45,-15 Q-52,0 -45,15" stroke="#b71c1c" stroke-width="2.5" fill="none" stroke-dasharray="4 3" stroke-linecap="round"/>
    <path d="M45,-15 Q52,0 45,15" stroke="#b71c1c" stroke-width="2.5" fill="none" stroke-dasharray="4 3" stroke-linecap="round"/>
    <circle r="6" fill="#ef5350"/>
    <rect x="-25" y="38" width="20" height="9" rx="2" fill="#c62828" opacity="0.85"/>
    <rect x="5" y="38" width="20" height="9" rx="2" fill="#c62828" opacity="0.85"/>
  </g>
  <rect width="320" height="320" fill="url(#fade_v)"/>
  <rect x="0" y="317" width="320" height="3" fill="url(#stripe_v)"/>
</svg>
